<?xml version="1.0" standalone="no"?>
<!DOCTYPE svg PUBLIC "-//W3C//DTD SVG 20010904//EN"
 "http://www.w3.org/TR/2001/REC-SVG-20010904/DTD/svg10.dtd">
<svg version="1.0" xmlns="http://www.w3.org/2000/svg"
 width="512.000000pt" height="512.000000pt" viewBox="0 0 512.000000 512.000000"
 preserveAspectRatio="xMidYMid meet">

<g transform="translate(0.000000,512.000000) scale(0.100000,-0.100000)"
fill="#ffffff" stroke="none">
<path d="M2351 5109 c-828 -93 -1511 -691 -1707 -1494 -50 -207 -69 -501 -44
-692 89 -668 487 -1399 1215 -2233 170 -194 635 -657 679 -675 45 -19 87 -19
133 0 44 19 506 478 678 675 501 574 854 1114 1048 1605 122 310 176 569 177
847 0 475 -157 909 -462 1273 -304 363 -725 602 -1198 680 -116 19 -405 27
-519 14z m489 -333 c427 -77 815 -320 1063 -666 79 -112 185 -319 226 -445 61
-186 75 -279 76 -510 0 -250 -16 -346 -100 -600 -162 -487 -472 -989 -974
-1574 -125 -145 -361 -399 -490 -526 l-81 -80 -81 80 c-128 126 -364 380 -490
526 -581 676 -926 1280 -1047 1834 -24 109 -26 140 -26 335 0 186 3 229 22
320 154 714 715 1228 1439 1320 96 12 362 4 463 -14z"/>
<path d="M2506 4233 c-10 -2 -285 -233 -611 -513 -614 -527 -615 -527 -615
-602 0 -69 59 -141 125 -154 64 -12 101 3 188 76 l82 69 5 -424 c5 -408 6
-425 26 -451 11 -15 33 -37 48 -48 27 -21 35 -21 806 -21 771 0 779 0 806 21
15 11 37 33 48 48 20 26 21 43 26 451 l5 424 82 -69 c54 -45 95 -71 118 -76
131 -24 232 99 181 221 -11 24 -165 162 -588 525 -315 271 -583 499 -596 508
-24 16 -103 25 -136 15z m340 -608 l274 -235 0 -455 0 -455 -560 0 -560 0 0
454 0 454 273 235 c149 130 278 236 285 236 8 1 137 -105 288 -234z"/>
</g>
</svg>
