<?xml version="1.0" standalone="no"?>
<!DOCTYPE svg PUBLIC "-//W3C//DTD SVG 20010904//EN"
 "http://www.w3.org/TR/2001/REC-SVG-20010904/DTD/svg10.dtd">
<svg version="1.0" xmlns="http://www.w3.org/2000/svg"
 width="512.000000pt" height="512.000000pt" viewBox="0 0 512.000000 512.000000"
 preserveAspectRatio="xMidYMid meet">

<g transform="translate(0.000000,512.000000) scale(0.100000,-0.100000)"
fill="#ffffff" stroke="none">
<path d="M2370 5113 c-379 -36 -661 -116 -980 -278 -399 -203 -764 -541 -1010
-935 -179 -286 -309 -655 -362 -1025 -17 -118 -17 -512 0 -630 42 -295 120
-553 242 -800 137 -280 272 -468 494 -691 221 -220 412 -357 681 -489 188 -92
309 -137 500 -185 500 -126 1002 -102 1490 71 149 53 407 183 540 271 560 374
951 942 1095 1588 33 150 50 291 57 465 15 426 -73 832 -263 1214 -125 252
-264 448 -461 652 -213 219 -428 376 -708 514 -296 146 -572 225 -900 255
-102 9 -333 11 -415 3z m30 -808 l0 -435 -350 0 -350 0 16 43 c42 107 150 320
209 406 129 194 244 306 390 382 42 21 78 39 81 39 2 0 4 -196 4 -435z m418
391 c122 -62 254 -193 374 -371 56 -83 174 -313 212 -412 l16 -43 -350 0 -350
0 0 435 0 435 24 -10 c14 -5 47 -20 74 -34z m-1058 -55 c0 -6 -4 -12 -9 -16
-17 -10 -102 -137 -163 -242 -72 -125 -123 -236 -179 -385 -23 -62 -45 -116
-49 -121 -3 -4 -143 -6 -310 -5 l-303 3 80 100 c205 255 510 490 813 627 113
51 120 53 120 39z m1718 -39 c303 -135 608 -370 815 -627 l80 -100 -303 -3
c-167 -1 -307 1 -310 5 -4 5 -26 59 -49 121 -56 149 -107 260 -179 385 -61
105 -146 232 -163 242 -10 7 -13 25 -4 25 3 0 54 -22 113 -48z m-2208 -1060
c0 -4 -9 -48 -19 -97 -38 -174 -80 -523 -81 -662 l0 -63 -420 0 -420 0 0 39
c0 59 37 262 70 387 29 110 74 236 124 347 l26 57 360 0 c198 0 360 -4 360 -8z
m1130 -407 l0 -415 -457 0 -456 0 7 118 c11 201 45 442 87 625 l21 87 399 0
399 0 0 -415z m1140 323 c42 -184 90 -546 90 -685 l0 -53 -455 0 -455 0 0 415
0 415 399 0 399 0 22 -92z m1056 35 c50 -111 95 -237 124 -347 33 -125 70
-328 70 -387 l0 -39 -418 0 -419 0 -7 124 c-8 162 -40 412 -71 570 -14 69 -25
128 -25 131 0 3 162 5 360 5 l360 0 26 -57z m-3422 -1217 c8 -162 40 -412 71
-570 14 -69 25 -128 25 -131 0 -3 -162 -5 -360 -5 l-360 0 -26 58 c-50 110
-95 236 -124 346 -33 125 -70 328 -70 387 l0 39 418 0 419 0 7 -124z m1226
-291 l0 -415 -399 0 -399 0 -21 88 c-42 182 -76 423 -87 625 l-7 117 456 0
457 0 0 -415z m1230 358 c-1 -142 -47 -493 -90 -680 l-22 -93 -399 0 -399 0 0
415 0 415 455 0 455 0 0 -57z m1160 18 c0 -59 -37 -262 -70 -387 -29 -110 -74
-236 -124 -346 l-26 -58 -360 0 c-198 0 -360 2 -360 5 0 3 11 62 25 131 31
158 63 408 71 570 l7 124 419 0 418 0 0 -39z m-3380 -1241 c58 -153 102 -249
165 -360 53 -95 137 -223 168 -257 11 -13 18 -25 15 -28 -8 -9 -175 66 -280
125 -255 144 -477 329 -649 543 -43 54 -79 100 -79 102 0 3 138 4 306 3 l307
-3 47 -125z m990 -305 l0 -435 -27 11 c-154 58 -316 207 -456 419 -47 72 -168
310 -201 398 l-16 42 350 0 350 0 0 -435z m1004 393 c-9 -24 -47 -106 -84
-183 -159 -329 -363 -554 -576 -635 l-24 -10 0 435 0 435 350 0 350 0 -16 -42z
m966 37 c0 -2 -36 -48 -79 -102 -172 -214 -394 -399 -649 -543 -105 -59 -272
-134 -280 -125 -3 3 4 15 15 28 92 101 246 385 327 600 19 51 39 104 45 120
l11 27 305 0 c168 0 305 -2 305 -5z"/>
</g>
</svg>
