<?xml version="1.0" standalone="no"?>
<!DOCTYPE svg PUBLIC "-//W3C//DTD SVG 20010904//EN"
 "http://www.w3.org/TR/2001/REC-SVG-20010904/DTD/svg10.dtd">
<svg version="1.0" xmlns="http://www.w3.org/2000/svg"
 width="512.000000pt" height="512.000000pt" viewBox="0 0 512.000000 512.000000"
 preserveAspectRatio="xMidYMid meet">

<g transform="translate(0.000000,512.000000) scale(0.100000,-0.100000)"
fill="#ffffff" stroke="none">
<path d="M642 4925 c-230 -51 -399 -231 -430 -460 -18 -130 32 -493 113 -820
249 -1007 834 -1897 1670 -2540 656 -506 1508 -841 2320 -915 153 -14 236 -2
345 52 135 65 258 226 289 376 7 34 11 222 11 529 0 524 -2 541 -63 658 -18
33 -61 90 -97 126 -93 94 -175 132 -355 165 -131 23 -374 82 -580 139 -165 46
-316 32 -459 -42 -58 -30 -98 -65 -213 -183 l-142 -145 -33 19 c-68 39 -257
172 -348 245 -126 101 -372 342 -473 464 -75 90 -236 308 -257 346 -6 12 23
51 120 159 194 219 230 292 238 474 4 100 2 114 -36 250 -50 177 -82 323 -122
545 -16 95 -39 195 -50 224 -62 155 -195 275 -365 327 -72 22 -988 28 -1083 7z
m1024 -401 c55 -41 63 -62 104 -284 38 -206 86 -415 130 -565 21 -73 19 -116
-7 -168 -7 -15 -92 -116 -188 -224 -96 -108 -181 -211 -190 -229 -20 -43 -19
-110 4 -160 43 -95 207 -335 350 -514 107 -134 414 -438 556 -552 147 -116
333 -244 480 -329 86 -49 121 -64 161 -67 88 -7 111 7 256 156 259 267 259
267 310 281 41 12 56 11 105 -2 243 -64 508 -129 611 -147 134 -25 173 -44
205 -98 18 -31 19 -56 18 -484 -2 -492 -1 -481 -61 -531 -42 -36 -82 -41 -202
-27 -277 31 -569 94 -821 176 -1569 510 -2695 1883 -2882 3512 l-17 143 24 47
c16 32 36 54 63 69 l40 23 462 -3 c449 -2 462 -3 489 -23z"/>
</g>
</svg>
