<?xml version="1.0" standalone="no"?>
<!DOCTYPE svg PUBLIC "-//W3C//DTD SVG 20010904//EN"
 "http://www.w3.org/TR/2001/REC-SVG-20010904/DTD/svg10.dtd">
<svg version="1.0" xmlns="http://www.w3.org/2000/svg"
 width="512.000000pt" height="512.000000pt" viewBox="0 0 512.000000 512.000000"
 preserveAspectRatio="xMidYMid meet">

<g transform="translate(0.000000,512.000000) scale(0.100000,-0.100000)"
fill="#000000" stroke="none">
<path d="M723 4806 c-198 -48 -371 -227 -412 -424 -8 -37 -11 -578 -11 -1825
0 -1952 -4 -1821 62 -1957 42 -88 150 -196 238 -238 136 -66 5 -62 1960 -62
1955 0 1824 -4 1960 62 88 42 196 150 238 238 66 136 62 5 62 1960 0 1955 4
1824 -62 1960 -42 88 -150 196 -238 238 -137 66 -4 62 -1965 61 -1400 -1
-1791 -3 -1832 -13z m3652 -260 c70 -27 147 -106 171 -176 18 -53 19 -111 19
-1810 0 -2003 9 -1818 -89 -1915 -95 -95 -28 -89 -1014 -93 -475 -1 -862 1
-860 5 92 185 89 150 86 972 -3 700 -3 707 -25 772 -47 138 -155 264 -278 325
-128 63 -136 64 -890 64 -789 0 -757 3 -938 -88 -4 -2 -6 385 -5 860 3 805 5
866 21 910 38 97 129 170 234 188 27 4 829 7 1783 6 1687 -1 1736 -2 1785 -20z
m-2139 -2133 c33 -11 67 -34 105 -72 94 -94 89 -49 89 -848 0 -655 -1 -695
-19 -743 -29 -77 -73 -125 -149 -162 l-67 -33 -695 0 c-801 0 -762 -4 -856 89
-93 94 -89 55 -89 856 l0 695 23 49 c42 93 93 141 181 172 28 10 189 13 732
14 625 0 700 -2 745 -17z"/>
<path d="M3256 4029 c-70 -55 -73 -143 -6 -204 20 -18 40 -21 198 -25 l176 -5
-365 -354 c-200 -195 -372 -366 -381 -380 -63 -93 35 -215 149 -186 19 4 151
129 401 378 l372 371 0 -164 c0 -182 5 -201 59 -237 56 -38 125 -25 170 33 20
26 21 37 21 368 0 320 -1 343 -19 370 -37 55 -38 55 -407 56 -331 0 -342 -1
-368 -21z"/>
</g>
</svg>
