<?xml version="1.0" standalone="no"?>
<!DOCTYPE svg PUBLIC "-//W3C//DTD SVG 20010904//EN"
 "http://www.w3.org/TR/2001/REC-SVG-20010904/DTD/svg10.dtd">
<svg version="1.0" xmlns="http://www.w3.org/2000/svg"
 width="512.000000pt" height="512.000000pt" viewBox="0 0 512.000000 512.000000"
 preserveAspectRatio="xMidYMid meet">

<g transform="translate(0.000000,512.000000) scale(0.100000,-0.100000)"
fill="#000000" stroke="none">
<path d="M2260 4874 c-197 -24 -408 -102 -565 -207 -83 -56 -108 -77 -203
-170 -168 -165 -284 -376 -344 -627 -19 -77 -21 -125 -25 -495 l-5 -411 -68
-11 c-190 -29 -346 -172 -395 -358 -22 -88 -23 -1901 0 -1988 45 -173 178
-307 350 -352 52 -13 244 -15 1555 -15 1311 0 1503 2 1555 15 172 45 305 179
350 352 23 87 22 1900 0 1988 -45 172 -179 305 -352 350 -49 13 -238 15 -1365
15 l-1308 0 0 359 c0 273 4 379 15 444 65 372 338 666 714 769 106 29 567 38
708 14 377 -65 679 -343 774 -714 10 -41 23 -124 27 -184 9 -116 19 -140 76
-182 39 -29 133 -29 172 0 62 46 69 66 68 187 -5 509 -371 998 -869 1161 -167
54 -200 58 -525 61 -168 2 -321 1 -340 -1z m1826 -2260 c15 -11 37 -33 48 -48
21 -27 21 -34 21 -966 0 -932 0 -939 -21 -966 -11 -15 -33 -37 -48 -48 -27
-21 -28 -21 -1526 -21 -1498 0 -1499 0 -1526 21 -15 11 -37 33 -48 48 -21 27
-21 36 -24 939 -1 502 0 926 3 944 7 40 49 91 90 109 25 11 296 13 1517 11
1484 -2 1487 -2 1514 -23z"/>
<path d="M2485 2151 c-92 -24 -173 -90 -215 -176 -20 -41 -25 -65 -24 -135 0
-73 4 -93 27 -138 26 -49 99 -132 118 -132 4 0 9 -121 11 -269 3 -255 4 -271
24 -298 73 -98 195 -98 268 0 20 27 21 43 24 295 l3 267 33 22 c43 28 93 104
113 172 42 145 -34 305 -176 372 -48 22 -157 33 -206 20z"/>
</g>
</svg>
